<?xml version="1.0" encoding="utf-8"?>
<!-- Generator: Adobe Illustrator 16.0.0, SVG Export Plug-In . SVG Version: 6.00 Build 0)  -->
<!DOCTYPE svg PUBLIC "-//W3C//DTD SVG 1.1//EN" "http://www.w3.org/Graphics/SVG/1.1/DTD/svg11.dtd">
<svg version="1.1" xmlns="http://www.w3.org/2000/svg" xmlns:xlink="http://www.w3.org/1999/xlink" x="0px" y="0px" width="57px"
	 height="57px" viewBox="0 0 57 57" enable-background="new 0 0 57 57" xml:space="preserve">
<g id="Layer_1">
	<path fill="none" d="M-457.63-1387.31c-0.72-0.49-1.08-0.74-1.08-0.74"/>
	<path fill="#222222" d="M-70.813,7.286"/>
	<path fill="none" d="M-451.44-48.24c-3.46,2.36-5.27,3.61-5.27,3.61"/>
</g>
<g id="Layer_2">
	<path fill="#CCCCCC" stroke="#FFFFFF" stroke-width="2" stroke-miterlimit="10" d="M46,28.512c0,1.038-0.328,1.88-0.732,1.88
		L18.163,43.01L16.035,44C12.702,44,10,37.065,10,28.512s2.702-15.488,6.035-15.488l2.128,0.991l27.104,12.618
		C45.672,26.632,46,27.473,46,28.512z"/>
	<path fill="#222222" stroke="#FFFFFF" stroke-miterlimit="10" d="M18.163,14.014l-2.128-0.991
		C16.784,13.023,17.502,13.374,18.163,14.014z"/>
	<ellipse stroke="#FFFFFF" stroke-width="2" stroke-miterlimit="10" cx="16.035" cy="28.512" rx="6.035" ry="15.488"/>
</g>
</svg>
